<svg xmlns="http://www.w3.org/2000/svg" xmlns:xlink="http://www.w3.org/1999/xlink" viewBox="0 0 46.95 43.67"><defs><style>.cls-1{fill:#036c70;}.cls-2{fill:#37c6d0;}.cls-3{fill:#1a9ba1;}.cls-4,.cls-5{isolation:isolate;}.cls-4{opacity:0.1;}.cls-5{opacity:0.2;}.cls-6{fill:url(#linear-gradient);}.cls-7{fill:#fff;}</style><linearGradient id="linear-gradient" x1="4.17" y1="686.26" x2="19.84" y2="713.4" gradientTransform="translate(0 -678)" gradientUnits="userSpaceOnUse"><stop offset="0" stop-color="#058f92"/><stop offset="0.5" stop-color="#038489"/><stop offset="1" stop-color="#026d71"/></linearGradient></defs><g id="Layer_2" data-name="Layer 2"><g id="Layer_1-2" data-name="Layer 1"><path class="cls-1" d="M47,21.84V41.68a2,2,0,0,1-2,2h-32a2,2,0,0,1-2-2V21.84l18.56-2.19Z"/><path class="cls-2" d="M12.92,0H45a2,2,0,0,1,2,2V21.84h-36V2A2,2,0,0,1,12.92,0Z"/><path class="cls-3" d="M30.57,27.3H41.49V38.21H30.57Z"/><circle class="cls-3" cx="36.03" cy="10.92" r="6.55"/><circle class="cls-1" cx="36.03" cy="10.92" r="3.28"/><path class="cls-4" d="M24.21,8.73H10.92V36H24.21a2,2,0,0,0,2-2V10.73A2,2,0,0,0,24.21,8.73Z"/><path class="cls-5" d="M23.11,9.83H10.92V37.12H23.11a2,2,0,0,0,2-2V11.82A2,2,0,0,0,23.11,9.83Z"/><path class="cls-5" d="M23.11,9.83H10.92V34.94H23.11a2,2,0,0,0,2-2V11.82A2,2,0,0,0,23.11,9.83Z"/><path class="cls-5" d="M22,9.83H10.92V34.94H22a2,2,0,0,0,2-2V11.82A2,2,0,0,0,22,9.83Z"/><path class="cls-6" d="M2,9.83H22a2,2,0,0,1,2,2v20a2,2,0,0,1-2,2H2a2,2,0,0,1-2-2v-20A2,2,0,0,1,2,9.83Z"/><path class="cls-7" d="M16.06,17.45H10.43V21h5.25v2.1H10.43v5.24H7.88v-13h8.19v2.12Z"/></g></g></svg>