<svg xmlns="http://www.w3.org/2000/svg" viewBox="0 0 40 39.83"><defs><style>.cls-1{fill:#12a1f6;}.cls-2{fill:#02a2fe;}.cls-3{fill:#fefefe;}</style></defs><g id="Layer_2" data-name="Layer 2"><g id="Layer_1-2" data-name="Layer 1"><path class="cls-1" d="M34.4,6.07C31.27,2.86,27.36,1.2,23.17,0h-6.1a5.78,5.78,0,0,1-1,.39,19.89,19.89,0,0,0-1.27,38.77,20.14,20.14,0,0,0,22.46-9.23A19.89,19.89,0,0,0,34.4,6.07ZM19.26,8.75a16.8,16.8,0,0,1,1.74,0,.76.76,0,0,1,0-.15c1.43.2,2.85.46,4.29.6,2.57.23,1.65,1.83,1.46,3.3S26,14.61,24.39,14a8.17,8.17,0,0,0-4.08-.4c-.88.14-1.76.39-1.92,1.45s.61,1.42,1.34,1.75c1.52.68,3.09,1.26,4.59,2,3.13,1.49,4.44,3.84,4,7-.39,2.67-2.52,4.55-5.69,5.18a21.74,21.74,0,0,1-8.2-.12c-1.88-.34-2.93-.92-2.25-3.28.51-1.76.79-2.71,2.86-1.84a11.47,11.47,0,0,0,5.15.55c.89-.05,1.82-.18,2-1.27s-.56-1.44-1.31-1.78c-1.19-.53-2.41-1-3.6-1.5-3.85-1.64-5.43-4.05-4.94-7.46C12.77,11.19,15.37,9.13,19.26,8.75Z"/><path class="cls-2" d="M28.3,25.72c-.39,2.67-2.52,4.55-5.69,5.18a21.74,21.74,0,0,1-8.2-.12c-1.88-.34-2.93-.92-2.25-3.28.51-1.76.79-2.71,2.86-1.84a11.47,11.47,0,0,0,5.15.55c.89-.05,1.82-.18,2-1.27s-.56-1.44-1.31-1.78c-1.19-.53-2.41-1-3.6-1.5-3.85-1.64-5.43-4.05-4.94-7.46.45-3,3-5.07,6.94-5.45a16.8,16.8,0,0,1,1.74,0,.76.76,0,0,1,0-.15c1.43.2,2.85.46,4.29.6,2.57.23,1.65,1.83,1.46,3.3S26,14.61,24.39,14a8.17,8.17,0,0,0-4.08-.4c-.88.14-1.76.39-1.92,1.45s.61,1.42,1.34,1.75c1.52.68,3.09,1.26,4.59,2C27.45,20.24,28.76,22.59,28.3,25.72Z"/><path class="cls-3" d="M28.3,25.72c-.39,2.67-2.52,4.55-5.69,5.18a21.74,21.74,0,0,1-8.2-.12c-1.88-.34-2.93-.92-2.25-3.28.51-1.76.79-2.71,2.86-1.84a11.47,11.47,0,0,0,5.15.55c.89-.05,1.82-.18,2-1.27s-.56-1.44-1.31-1.78c-1.19-.53-2.41-1-3.6-1.5-3.85-1.64-5.43-4.05-4.94-7.46.45-3,3-5.07,6.94-5.45a16.8,16.8,0,0,1,1.74,0,.76.76,0,0,1,0-.15c1.43.2,2.85.46,4.29.6,2.57.23,1.65,1.83,1.46,3.3S26,14.61,24.39,14a8.17,8.17,0,0,0-4.08-.4c-.88.14-1.76.39-1.92,1.45s.61,1.42,1.34,1.75c1.52.68,3.09,1.26,4.59,2C27.45,20.24,28.76,22.59,28.3,25.72Z"/></g></g></svg>