<?xml version="1.0" encoding="UTF-8"?>
<svg id="Layer_2" data-name="Layer 2" xmlns="http://www.w3.org/2000/svg" viewBox="0 0 60.03 59.95">
  <defs>
    <style>
      .cls-1 {
        fill: #fe8739;
      }

      .cls-2 {
        fill: #fef6f1;
      }
    </style>
  </defs>
  <g id="Layer_1-2" data-name="Layer 1">
    <g>
      <path class="cls-1" d="M22.87.7c40.35-7.44,49.97,46.55,18.26,57.35C8.03,69.32-15.54,27.54,12.35,6.21c3.09-2.36,6.61-4.78,10.52-5.51ZM27.99,19.58c.41-.68,2.62-.76,3.7-2.8,1.61-3.02,2.4-8.02-1.1-9.92-4.99-2.7-3.98,1.81-5.41,2.17-4.61,1.16-5.93-.88-11.18,3.17-16.02,12.37,9.28,19.19,11.47,22.98,1.29,2.23.22,5.43,1.07,7.64.78,2.02,2.46,3.44,3.35,5.41,1.14,2.54-.64,8.06,4.31,5.83.69-.31,7.22-12.23,7.45-13.02,2.61-9.12-8.79-6.42-12.98-7.6-1.79-.5-7.13-5.22-9.76-6.24,1.53-3.46,8.18-1.61,8.72-2.19.45-.48-.68-3.75.35-5.45ZM52.45,19.24c-8.26,1.46-7.79,14.02,1.46,13.05l-1.46-13.05Z"/>
      <path class="cls-2" d="M27.99,19.58c-1.03,1.7.1,4.97-.35,5.45-.55.58-7.19-1.27-8.72,2.19,2.63,1.01,7.97,5.74,9.76,6.24,4.19,1.17,15.59-1.52,12.98,7.6-.23.79-6.76,12.71-7.45,13.02-4.94,2.23-3.17-3.3-4.31-5.83-.89-1.98-2.57-3.39-3.35-5.41-.85-2.21.22-5.41-1.07-7.64-2.19-3.79-27.5-10.61-11.47-22.98,5.25-4.05,6.57-2.02,11.18-3.17,1.43-.36.42-4.87,5.41-2.17,3.5,1.89,2.71,6.9,1.1,9.92-1.09,2.04-3.29,2.11-3.7,2.8Z"/>
      <path class="cls-2" d="M52.45,19.24l1.46,13.05c-9.25.96-9.72-11.6-1.46-13.05Z"/>
    </g>
  </g>
</svg>